<?xml version="1.0" encoding="UTF-8" standalone="no"?>
<svg
   xmlns:dc="http://purl.org/dc/elements/1.1/"
   xmlns:cc="http://creativecommons.org/ns#"
   xmlns:rdf="http://www.w3.org/1999/02/22-rdf-syntax-ns#"
   xmlns:svg="http://www.w3.org/2000/svg"
   xmlns="http://www.w3.org/2000/svg"
   viewBox="0 0 757.33331 757.33331"
   height="757.33331"
   width="757.33331"
   xml:space="preserve"
   id="svg2"
   version="1.1"><metadata
     id="metadata8"><rdf:RDF><cc:Work
         rdf:about=""><dc:format>image/svg+xml</dc:format><dc:type
           rdf:resource="http://purl.org/dc/dcmitype/StillImage" /></cc:Work></rdf:RDF></metadata><defs
     id="defs6" /><g
     transform="matrix(1.3333333,0,0,-1.3333333,0,757.33333)"
     id="g10"><g
       transform="scale(0.1)"
       id="g12"><path
         id="path14"
         style="fill:none;stroke:#100f0d;stroke-width:197.6190033;stroke-linecap:round;stroke-linejoin:round;stroke-miterlimit:10;stroke-dasharray:none;stroke-opacity:1"
         d="m 3260,2045.94 c 446.12,0 825.17,877.81 855.94,1296.87 11.94,162.62 -17.7,311.25 -155.63,311.25 -228.26,0 -337.18,-472.06 -337.18,-855.93 0,-383.89 129.68,-726.25 440.93,-726.25 178.46,0 325.98,242.44 359.17,387.89 41.31,180.99 154.81,312.42 367.08,312.42 138.24,-14.59 233.44,-131.43 233.44,-311.25 0,-147.31 -101.88,-415 -337.19,-415 -186.72,0 -305.24,175.37 -262.07,414.56" /><path
         id="path16"
         style="fill:none;stroke:#100f0d;stroke-width:202.33200073;stroke-linecap:round;stroke-linejoin:round;stroke-miterlimit:10;stroke-dasharray:none;stroke-opacity:1"
         d="m 5438.75,2798.13 c -81.57,-72.64 -157.69,-171.2 -435.04,-129.69" /><path
         id="path18"
         style="fill:none;stroke:#100f0d;stroke-width:197.6190033;stroke-linecap:round;stroke-linejoin:round;stroke-miterlimit:10;stroke-dasharray:none;stroke-opacity:1"
         d="m 5360.36,2097.7 2.02,3.56" /><path
         id="path20"
         style="fill:none;stroke:#100f0d;stroke-width:197.6190033;stroke-linecap:round;stroke-linejoin:round;stroke-miterlimit:10;stroke-dasharray:none;stroke-opacity:1"
         d="m 251.25,2331.25 c 300.871,108.93 1245,772.94 1245,1193.13 0,57.06 -15.56,155.62 -103.75,155.62 -265.81,0 -261.7,-406.87 -337.19,-804.06 -45.97,-241.87 -155.247,-579.39 -155.247,-810.1 41.503,552.73 186.377,706.35 466.497,706.35 134.88,0 233.44,-57.06 233.44,-181.56 0,-124.51 -77.81,-238.62 -77.81,-311.25 0,-202.33 108.93,-259.38 233.44,-259.38 295.69,0 674.37,332.01 674.37,544.69 0,98.57 -67.44,207.5 -207.5,207.5 -149.04,0 -223.14,-122.28 -217.38,-285.31 6.23,-176.28 98.07,-440.94 424.88,-440.94 446.12,0 851.11,851.88 881.88,1270.94 11.94,162.62 -17.71,311.25 -155.63,311.25 -228.26,0 -337.19,-472.07 -337.19,-855.94 0,-383.89 129.69,-726.25 440.94,-726.25" /></g></g></svg>