<svg height="1024" node-id="1" sillyvg="true" template-height="1024" template-width="1024" version="1.1" viewBox="0 0 1024 1024" width="1024" xmlns="http://www.w3.org/2000/svg" xmlns:xlink="http://www.w3.org/1999/xlink"><defs node-id="19"><mask height="1019.9041" id="mask-2" maskUnits="userSpaceOnUse" node-id="8" width="983.04004" x="225.28" y="176.128"><path d="M 225.30 174.10 L 1208.30 174.10 L 1212.10 174.40 L 1215.50 175.40 L 1218.70 176.90 L 1221.50 178.90 L 1224.00 181.30 L 1226.00 184.20 L 1227.50 187.40 L 1228.50 190.80 L 1228.80 194.60 L 1228.80 1177.60 L 1228.50 1181.30 L 1227.50 1184.80 L 1226.00 1187.90 L 1224.00 1190.80 L 1221.50 1193.20 L 1218.70 1195.30 L 1215.50 1196.80 L 1212.10 1197.70 L 1208.30 1198.10 L 225.30 1198.10 L 221.50 1197.70 L 218.10 1196.80 L 214.90 1195.30 L 212.10 1193.20 L 209.60 1190.80 L 207.60 1187.90 L 206.10 1184.80 L 205.10 1181.30 L 204.80 1177.60 L 204.80 194.60 L 205.10 190.80 L 206.10 187.40 L 207.60 184.20 L 209.60 181.30 L 212.10 178.90 L 214.90 176.90 L 218.10 175.40 L 221.50 174.40 L 225.30 174.10 Z" fill="#ffffff" fill-rule="evenodd" node-id="24" stroke="none" target-height="1024" target-width="1024" target-x="204.8" target-y="174.1"/></mask></defs><g node-id="26"><g node-id="28"><g node-id="29"><g node-id="30"><path d="M 103.40 886.00 L 103.70 887.80 L 104.40 889.50 L 105.70 891.40 L 107.60 893.40 L 110.40 895.50 L 114.20 897.70 L 119.50 900.20 L 126.20 902.80 L 134.60 905.60 L 145.00 908.40 L 158.50 911.60 L 174.50 914.70 L 193.30 917.90 L 233.20 923.20 L 256.60 925.80 L 305.40 930.00 L 359.80 933.30 L 418.70 935.60 L 448.90 936.30 L 512.50 937.00 L 576.10 936.30 L 606.30 935.60 L 665.20 933.30 L 719.60 930.00 L 768.40 925.80 L 791.80 923.20 L 831.70 917.90 L 850.50 914.70 L 866.50 911.60 L 880.00 908.40 L 890.40 905.60 L 898.80 902.80 L 905.50 900.20 L 910.80 897.70 L 914.60 895.50 L 917.40 893.40 L 919.40 891.40 L 920.60 889.50 L 921.30 887.80 L 921.60 886.00 L 921.30 884.30 L 920.60 882.50 L 919.40 880.70 L 917.40 878.70 L 914.60 876.60 L 910.80 874.40 L 905.50 871.90 L 898.80 869.20 L 890.40 866.50 L 880.00 863.60 L 866.50 860.50 L 850.50 857.30 L 831.70 854.20 L 791.80 848.80 L 768.40 846.30 L 719.60 842.10 L 665.20 838.80 L 606.30 836.50 L 576.10 835.70 L 512.50 835.10 L 448.90 835.70 L 418.70 836.50 L 359.80 838.80 L 305.40 842.10 L 256.60 846.30 L 233.20 848.80 L 193.30 854.20 L 174.50 857.30 L 158.50 860.50 L 145.00 863.60 L 134.60 866.50 L 126.20 869.20 L 119.50 871.90 L 114.20 874.40 L 110.40 876.60 L 107.60 878.70 L 105.70 880.70 L 104.40 882.50 L 103.70 884.30 L 103.40 886.00 Z" fill="#2f6af8" fill-opacity="0.1" fill-rule="nonzero" group-id="1,3,4,5" id="路径" node-id="13" stroke="none" target-height="101.900024" target-width="818.19995" target-x="103.4" target-y="835.1"/></g><path d="M 102.40 807.60 L 102.70 810.50 L 103.30 813.10 L 104.40 815.40 L 105.90 817.60 L 107.80 819.40 L 109.90 820.90 L 112.30 822.00 L 114.90 822.60 L 117.70 822.90 L 120.60 822.60 L 123.20 822.00 L 125.60 820.90 L 127.70 819.40 L 129.50 817.60 L 131.00 815.40 L 132.10 813.10 L 132.80 810.50 L 133.10 807.60 L 132.80 804.80 L 132.10 802.20 L 131.00 799.80 L 129.50 797.70 L 127.70 795.90 L 125.60 794.40 L 123.20 793.30 L 120.60 792.60 L 117.70 792.30 L 115.00 792.60 L 112.50 793.30 L 110.10 794.50 L 108.00 796.00 L 106.10 797.90 L 104.60 800.00 L 103.40 802.40 L 102.70 804.90 L 102.40 807.60 Z M 921.60 833.10 L 912.10 836.20 L 909.70 837.40 L 905.90 840.10 L 903.00 843.90 L 901.80 846.30 L 900.20 850.40 L 898.60 856.00 L 895.50 846.50 L 894.30 844.10 L 891.50 840.30 L 887.80 837.50 L 885.30 836.20 L 881.20 834.70 L 875.60 833.10 L 885.10 829.90 L 887.50 828.70 L 891.30 825.80 L 894.20 822.00 L 895.40 819.60 L 898.60 810.20 L 901.70 819.60 L 902.90 822.00 L 905.70 825.80 L 909.40 828.70 L 911.90 829.90 L 916.00 831.50 L 921.60 833.10 Z M 210.80 344.70 L 203.90 346.70 L 198.80 348.60 L 195.80 350.10 L 191.10 353.70 L 187.40 358.40 L 185.90 361.50 L 183.80 366.70 L 181.70 373.70 L 179.70 366.90 L 177.80 361.80 L 176.20 358.80 L 172.60 354.10 L 167.90 350.50 L 164.80 348.90 L 159.60 346.90 L 152.50 344.70 L 159.40 342.70 L 164.50 340.80 L 167.50 339.30 L 172.30 335.70 L 175.90 331.00 L 177.50 327.90 L 179.50 322.70 L 181.70 315.70 L 183.80 322.50 L 185.90 327.60 L 187.40 330.70 L 191.10 335.40 L 195.80 339.00 L 198.80 340.50 L 203.90 342.60 L 210.80 344.70 Z M 827.00 264.30 L 817.60 267.30 L 815.20 268.50 L 811.50 271.30 L 808.80 274.90 L 807.60 277.30 L 804.50 286.70 L 801.40 277.30 L 800.20 274.90 L 797.50 271.30 L 793.80 268.50 L 791.40 267.30 L 782.00 264.30 L 791.40 261.20 L 793.80 260.00 L 797.50 257.30 L 800.20 253.60 L 801.40 251.20 L 804.50 241.80 L 805.90 247.30 L 807.40 251.20 L 808.50 253.60 L 811.30 257.30 L 815.10 260.00 L 817.50 261.20 L 827.00 264.30 Z M 814.20 206.20 L 802.80 209.40 L 793.80 212.40 L 788.20 214.70 L 783.40 217.20 L 779.40 219.80 L 775.60 222.80 L 772.20 226.10 L 769.30 229.90 L 766.70 234.00 L 764.20 238.80 L 761.80 244.40 L 758.70 253.40 L 755.40 264.80 L 752.20 253.40 L 749.20 244.40 L 746.80 238.90 L 744.40 234.10 L 741.80 230.10 L 738.80 226.30 L 735.40 223.00 L 731.60 220.00 L 727.50 217.40 L 722.70 214.90 L 717.10 212.60 L 708.00 209.50 L 696.60 206.20 L 708.00 203.00 L 717.00 200.00 L 722.60 197.70 L 727.40 195.20 L 731.40 192.60 L 735.20 189.60 L 738.60 186.30 L 741.60 182.50 L 744.10 178.40 L 746.60 173.60 L 749.00 168.00 L 752.10 159.00 L 755.40 147.60 L 758.60 158.90 L 761.60 167.80 L 764.00 173.30 L 766.40 178.00 L 769.00 182.10 L 772.00 185.90 L 775.40 189.30 L 779.20 192.30 L 783.30 194.90 L 788.10 197.40 L 793.80 199.80 L 802.80 202.90 L 814.20 206.20 Z" fill="#9cc5ff" fill-rule="nonzero" group-id="1,3,4" id="形状" node-id="14" stroke="none" target-height="708.4" target-width="819.19995" target-x="102.4" target-y="147.6"/><path d="M 458.30 328.90 L 448.80 331.70 L 439.60 334.90 L 430.70 338.50 L 422.00 342.40 L 413.70 346.70 L 405.40 351.40 L 397.50 356.40 L 389.80 361.70 L 382.50 367.30 L 375.40 373.20 L 366.90 381.10 L 358.90 389.30 L 351.50 397.90 L 344.50 407.00 L 338.00 416.40 L 332.00 426.10 L 326.60 436.10 L 321.70 446.40 L 317.40 457.00 L 313.70 467.80 L 310.60 478.80 L 308.00 490.00 L 306.50 499.10 L 305.30 508.20 L 304.60 517.40 L 304.30 526.80 L 304.40 536.20 L 304.90 545.60 L 305.90 555.00 L 307.30 564.50 L 309.20 574.00 L 311.50 583.50 L 314.40 593.00 L 317.60 602.20 L 321.10 611.00 L 325.10 619.70 L 329.40 628.00 L 334.10 636.20 L 339.10 644.10 L 344.40 651.70 L 350.10 659.10 L 356.00 666.10 L 363.90 674.60 L 372.20 682.50 L 380.80 689.90 L 389.90 696.90 L 399.30 703.40 L 409.10 709.30 L 419.10 714.70 L 429.50 719.60 L 440.10 723.90 L 450.90 727.60 L 462.00 730.70 L 473.30 733.20 L 482.40 734.80 L 491.60 735.90 L 500.90 736.60 L 510.20 737.00 L 519.70 736.90 L 529.10 736.30 L 538.60 735.40 L 548.10 733.90 L 557.60 732.10 L 567.20 729.70 L 576.70 726.90 L 585.90 723.70 L 594.80 720.10 L 603.50 716.20 L 611.90 711.90 L 620.10 707.20 L 628.10 702.20 L 635.70 696.90 L 643.10 691.30 L 650.10 685.40 L 658.60 677.60 L 666.60 669.30 L 674.10 660.70 L 681.10 651.70 L 687.60 642.30 L 693.50 632.60 L 698.90 622.60 L 703.80 612.20 L 708.10 601.70 L 711.80 590.90 L 715.00 579.90 L 717.50 568.60 L 719.10 559.60 L 720.20 550.40 L 721.00 541.20 L 721.30 531.80 L 721.20 522.40 L 720.70 513.00 L 719.70 503.60 L 718.20 494.20 L 716.40 484.70 L 714.00 475.10 L 711.20 465.60 L 708.00 456.50 L 704.40 447.60 L 700.50 439.00 L 696.10 430.60 L 691.40 422.40 L 686.40 414.60 L 681.10 407.00 L 675.50 399.60 L 669.50 392.60 L 661.60 384.20 L 653.40 376.30 L 644.70 368.80 L 635.60 361.90 L 626.20 355.40 L 616.40 349.50 L 606.40 344.10 L 596.00 339.30 L 585.40 335.00 L 574.60 331.30 L 563.50 328.20 L 552.20 325.70 L 543.10 324.10 L 534.00 322.90 L 524.70 322.20 L 515.30 321.80 L 505.80 321.90 L 496.40 322.40 L 487.00 323.40 L 477.50 324.80 L 467.90 326.60 L 458.30 328.90 Z M 592.80 419.60 L 593.30 422.80 L 593.30 426.00 L 592.80 429.00 L 591.70 431.90 L 590.20 434.50 L 588.20 436.80 L 585.90 438.80 L 583.10 440.30 L 580.00 441.50 L 576.70 442.00 L 573.60 442.00 L 570.60 441.50 L 567.70 440.40 L 565.10 438.90 L 562.70 436.90 L 560.70 434.60 L 559.20 431.90 L 558.00 428.70 L 557.50 425.50 L 557.50 422.30 L 558.00 419.30 L 559.10 416.40 L 560.60 413.90 L 562.60 411.50 L 565.00 409.50 L 567.70 408.00 L 570.80 406.80 L 574.10 406.40 L 577.20 406.60 L 580.30 407.20 L 583.20 408.30 L 585.80 409.80 L 588.10 411.70 L 590.10 414.00 L 591.70 416.60 L 592.80 419.60 Z" fill="#9cc5ff" fill-rule="nonzero" group-id="1,3,4" id="形状" node-id="15" stroke="none" target-height="415.2" target-width="417" target-x="304.3" target-y="321.8"/><path d="M 249.20 134.40 L 249.20 139.00 L 286.50 174.60 L 432.20 103.80 L 300.80 187.90 L 300.80 229.10 L 321.80 208.70 L 321.80 208.20 L 343.30 229.10 L 456.30 92.10 L 456.30 87.00 Z" fill="#9cc5ff" fill-rule="nonzero" group-id="1,3,4" id="路径" node-id="16" stroke="none" target-height="142.1" target-width="207.09999" target-x="249.2" target-y="87"/><path d="M 906.80 435.90 L 905.10 430.50 L 902.90 425.40 L 900.30 420.40 L 897.20 415.60 L 893.60 411.00 L 889.50 406.40 L 884.30 401.60 L 878.40 396.90 L 871.70 392.50 L 864.30 388.20 L 856.00 384.10 L 847.80 380.70 L 838.90 377.50 L 829.20 374.50 L 818.60 371.80 L 807.20 369.30 L 784.40 365.70 L 771.80 364.40 L 744.20 362.50 L 737.20 353.40 L 729.80 344.60 L 722.20 336.10 L 714.30 328.00 L 706.10 320.20 L 697.50 312.70 L 688.70 305.50 L 679.60 298.80 L 670.30 292.40 L 660.80 286.30 L 651.00 280.70 L 641.00 275.40 L 630.80 270.50 L 620.40 266.10 L 609.80 262.00 L 599.10 258.30 L 588.20 255.10 L 577.20 252.30 L 566.00 249.90 L 554.70 247.90 L 543.30 246.50 L 531.80 245.40 L 520.30 244.90 L 508.60 244.80 L 496.80 245.20 L 485.20 246.00 L 473.40 247.40 L 461.60 249.30 L 449.80 251.70 L 437.90 254.60 L 426.10 258.00 L 414.60 261.90 L 403.50 266.10 L 392.60 270.80 L 382.10 275.90 L 371.80 281.40 L 361.70 287.30 L 352.00 293.60 L 342.70 300.20 L 333.60 307.20 L 324.80 314.50 L 316.40 322.20 L 308.30 330.10 L 300.50 338.30 L 293.10 346.90 L 286.10 355.70 L 279.40 364.80 L 273.10 374.10 L 267.10 383.70 L 261.50 393.50 L 256.30 403.50 L 251.60 413.70 L 247.20 424.10 L 243.20 434.60 L 239.60 445.40 L 236.50 456.30 L 233.70 467.30 L 231.50 478.40 L 229.60 489.60 L 228.20 501.10 L 205.20 516.40 L 195.00 523.90 L 177.10 538.30 L 168.40 546.20 L 160.70 553.80 L 153.80 561.20 L 147.70 568.40 L 142.40 575.50 L 137.30 583.10 L 133.00 590.60 L 129.50 597.80 L 126.80 604.70 L 124.80 611.50 L 123.50 617.50 L 122.80 623.30 L 122.60 629.10 L 122.90 634.70 L 123.60 640.20 L 124.90 645.70 L 126.70 651.30 L 129.00 656.70 L 131.80 662.00 L 135.10 667.00 L 138.90 671.80 L 143.30 676.50 L 147.90 680.70 L 153.00 684.80 L 158.70 688.70 L 165.00 692.40 L 171.90 696.00 L 179.40 699.40 L 188.20 702.80 L 197.80 706.00 L 208.30 708.90 L 219.70 711.50 L 232.10 713.80 L 244.00 715.60 L 256.70 717.10 L 270.30 718.30 L 284.80 719.10 L 300.30 719.50 L 308.90 728.60 L 317.90 737.20 L 327.20 745.40 L 336.80 753.20 L 346.70 760.60 L 357.00 767.60 L 367.50 774.10 L 378.30 780.10 L 389.30 785.70 L 400.60 790.80 L 412.10 795.50 L 423.80 799.60 L 435.70 803.20 L 447.70 806.40 L 460.00 809.00 L 472.30 811.00 L 484.70 812.60 L 497.30 813.50 L 510.00 813.90 L 522.80 813.80 L 535.60 813.10 L 548.40 811.70 L 561.20 809.80 L 574.10 807.20 L 587.20 804.00 L 600.00 800.20 L 612.50 795.90 L 624.60 791.20 L 636.30 785.90 L 647.70 780.10 L 658.90 773.80 L 669.70 767.10 L 680.10 760.00 L 690.10 752.40 L 699.70 744.50 L 709.00 736.10 L 717.90 727.40 L 726.40 718.30 L 734.40 708.90 L 742.00 699.10 L 749.20 689.00 L 756.00 678.70 L 762.20 668.10 L 768.10 657.20 L 773.40 646.00 L 778.30 634.60 L 782.70 623.00 L 786.50 611.30 L 789.90 599.30 L 792.70 587.10 L 805.80 579.00 L 817.90 571.10 L 829.00 563.40 L 839.20 555.80 L 848.50 548.30 L 858.00 540.10 L 866.50 532.20 L 874.10 524.40 L 880.70 516.90 L 886.60 509.60 L 891.40 502.90 L 895.50 496.30 L 899.00 490.00 L 902.00 483.80 L 904.30 477.70 L 906.20 471.80 L 907.70 465.50 L 908.60 459.40 L 908.90 453.40 L 908.70 447.50 L 908.00 441.70 L 906.80 435.90 Z M 447.60 289.20 L 459.10 286.40 L 470.50 284.20 L 481.90 282.50 L 493.20 281.40 L 504.50 280.80 L 515.90 280.70 L 527.10 281.10 L 538.20 282.00 L 549.30 283.40 L 560.20 285.30 L 571.00 287.70 L 581.70 290.50 L 592.20 293.80 L 602.50 297.50 L 612.70 301.70 L 622.70 306.30 L 632.40 311.40 L 641.90 316.80 L 651.20 322.70 L 660.20 328.90 L 669.00 335.60 L 677.40 342.60 L 685.60 350.00 L 693.40 357.80 L 700.90 365.90 L 708.10 374.40 L 714.90 383.20 L 721.30 392.30 L 727.30 401.80 L 732.90 411.60 L 738.10 421.60 L 742.80 432.00 L 747.10 442.60 L 751.00 453.60 L 754.40 464.90 L 756.90 475.10 L 759.00 485.20 L 760.70 495.30 L 761.90 505.40 L 762.60 515.40 L 763.00 528.10 L 762.80 540.60 L 762.00 553.00 L 760.50 565.20 L 745.70 573.30 L 730.00 581.40 L 713.40 589.40 L 679.20 604.50 L 661.00 611.90 L 623.90 625.60 L 604.70 632.20 L 565.70 644.20 L 545.70 649.70 L 505.60 659.70 L 485.70 664.00 L 446.00 671.60 L 407.30 677.40 L 370.10 681.50 L 351.70 683.00 L 334.10 683.90 L 317.20 684.40 L 309.70 674.50 L 302.80 664.20 L 296.20 653.50 L 290.20 642.40 L 285.80 633.40 L 281.70 624.10 L 278.00 614.60 L 274.70 604.80 L 271.70 594.80 L 268.80 583.20 L 266.50 571.80 L 264.70 560.40 L 263.50 549.10 L 262.80 537.80 L 262.70 526.50 L 263.00 515.30 L 263.90 504.20 L 265.20 493.20 L 267.10 482.30 L 269.40 471.50 L 272.20 460.80 L 275.50 450.40 L 279.20 440.10 L 283.40 429.90 L 288.00 420.00 L 293.10 410.30 L 298.50 400.80 L 304.40 391.60 L 310.70 382.60 L 317.40 373.90 L 324.40 365.50 L 331.90 357.40 L 339.70 349.60 L 347.90 342.10 L 356.40 335.00 L 365.20 328.30 L 374.40 322.00 L 384.00 316.00 L 393.90 310.40 L 404.00 305.30 L 414.40 300.60 L 425.10 296.40 L 436.20 292.60 L 447.60 289.20 Z M 159.20 636.50 L 158.50 633.00 L 158.30 629.40 L 158.50 625.50 L 159.20 621.50 L 160.40 617.10 L 162.30 612.00 L 164.90 606.60 L 168.40 600.80 L 172.60 594.60 L 182.30 582.90 L 195.20 570.10 L 204.50 561.80 L 215.10 553.30 L 227.20 544.30 L 228.90 563.80 L 231.90 583.50 L 236.40 603.40 L 239.50 614.20 L 243.00 624.80 L 246.90 635.00 L 251.10 645.00 L 260.80 664.50 L 271.70 682.80 L 248.20 680.50 L 228.10 677.20 L 218.10 675.00 L 209.20 672.60 L 201.10 670.00 L 193.90 667.30 L 186.60 664.00 L 180.40 660.70 L 175.10 657.20 L 170.60 653.60 L 167.10 650.30 L 164.30 647.00 L 162.10 643.60 L 160.40 640.10 L 159.20 636.50 Z M 577.50 769.90 L 567.40 772.40 L 557.40 774.50 L 547.50 776.10 L 537.60 777.30 L 527.80 778.10 L 515.40 778.60 L 503.10 778.40 L 491.00 777.70 L 478.90 776.30 L 467.00 774.40 L 455.20 771.90 L 443.60 768.90 L 432.20 765.30 L 421.00 761.10 L 410.00 756.50 L 399.30 751.40 L 388.80 745.70 L 378.60 739.60 L 368.70 733.00 L 359.10 726.00 L 349.90 718.50 L 371.00 717.00 L 392.80 714.90 L 415.20 712.20 L 437.50 709.00 L 460.40 705.10 L 483.70 700.70 L 506.90 695.70 L 530.50 690.10 L 554.40 683.90 L 578.30 677.20 L 601.50 670.20 L 624.00 662.90 L 646.40 655.10 L 668.10 647.00 L 689.10 638.70 L 709.80 629.90 L 729.70 620.80 L 748.80 611.60 L 744.50 622.70 L 739.70 633.60 L 734.50 644.20 L 728.70 654.70 L 722.40 664.80 L 715.70 674.60 L 708.50 684.10 L 700.80 693.30 L 692.70 702.20 L 684.20 710.60 L 675.30 718.60 L 665.90 726.30 L 656.10 733.50 L 646.00 740.20 L 635.50 746.40 L 624.50 752.20 L 615.60 756.50 L 606.40 760.30 L 597.00 763.90 L 587.40 767.10 L 577.50 769.90 Z M 798.40 541.80 L 798.40 520.40 L 796.80 498.80 L 795.40 488.00 L 793.60 477.20 L 791.30 466.50 L 785.90 445.90 L 782.70 436.30 L 775.40 417.90 L 767.20 400.20 L 782.00 401.90 L 795.50 404.00 L 807.70 406.40 L 825.30 411.00 L 839.60 416.20 L 846.40 419.40 L 852.30 422.60 L 857.30 426.00 L 861.60 429.40 L 864.80 432.50 L 867.50 435.70 L 869.70 438.90 L 871.30 442.20 L 872.50 445.50 L 873.20 449.20 L 873.30 453.00 L 873.10 457.00 L 872.30 461.20 L 870.90 465.80 L 868.80 471.10 L 865.90 476.80 L 862.20 482.80 L 857.50 489.30 L 852.60 495.20 L 847.00 501.50 L 840.50 508.00 L 833.00 514.90 L 817.30 527.90 L 798.40 541.80 Z" fill="#64adff" fill-rule="nonzero" group-id="1,3,4" id="形状" node-id="17" stroke="none" target-height="569.10004" target-width="786.30005" target-x="122.6" target-y="244.8"/></g></g></g></svg>